<svg width="41" height="40" viewBox="0 0 41 40" fill="none" xmlns="http://www.w3.org/2000/svg">
<g id="american_express_logo.svg" clip-path="url(#clip0_1117_23490)">
<g id="layer1">
<path id="path3078" d="M0.924805 0.00012207H40.9054V21.5933L38.9265 24.6869L40.9054 27.4402V40.0001H0.924805V19.6444L2.16164 18.2213L0.924805 16.8601V0.00012207Z" fill="#016FD0"/>
<path id="path3082" d="M8.68359 27.8727V21.5928H15.3297L16.0428 22.5228L16.7794 21.5928H40.9031V27.4396C40.9031 27.4396 40.2722 27.8665 39.5426 27.8727H26.1848L25.3808 26.8828V27.8727H22.7464V26.1829C22.7464 26.1829 22.3865 26.4188 21.6085 26.4188H20.7118V27.8727H16.723L16.011 26.9228L15.288 27.8727H8.68359Z" fill="white"/>
<path id="path3080" d="M0.924805 16.8602L2.42353 13.3645H5.01541L5.86595 15.3227V13.3645H9.0879L9.59423 14.7798L10.0851 13.3645H24.5483V14.076C24.5483 14.076 25.3086 13.3645 26.5582 13.3645L31.251 13.3809L32.0868 15.3135V13.3645H34.7831L35.5252 14.4746V13.3645H38.2462V19.6445H35.5252L34.814 18.5308V19.6445H30.8526L30.4542 18.6545H29.3892L28.9973 19.6445H26.3108C25.2356 19.6445 24.5483 18.9475 24.5483 18.9475V19.6445H20.4977L19.6937 18.6545V19.6445H4.63144L4.23333 18.6545H3.17176L2.77646 19.6445H0.924805V16.8602Z" fill="white"/>
<path id="path3046" d="M2.95309 14.1385L0.931641 18.8407H2.24771L2.62069 17.8991H4.78901L5.16006 18.8407H6.50512L4.4856 14.1385H2.95309ZM3.70099 15.2328L4.36192 16.8782H3.03812L3.70099 15.2328Z" fill="#016FD0"/>
<path id="path3048" d="M6.64551 18.8396V14.1374L8.51571 14.1443L9.60349 17.176L10.6652 14.1374H12.5205V18.8396H11.3455V15.3748L10.1 18.8396H9.06949L7.8205 15.3748V18.8396H6.64551Z" fill="#016FD0"/>
<path id="path3050" d="M13.3242 18.8396V14.1374H17.1584V15.1892H14.5116V15.9935H17.0966V16.9835H14.5116V17.8188H17.1584V18.8396H13.3242Z" fill="#016FD0"/>
<path id="path3052" d="M17.8398 14.1385V18.8407H19.0148V17.1702H19.5096L20.9184 18.8407H22.3543L20.8082 17.1083C21.4427 17.0548 22.0973 16.5099 22.0973 15.664C22.0973 14.6745 21.321 14.1385 20.4546 14.1385H17.8398ZM19.0148 15.1903H20.358C20.6802 15.1903 20.9145 15.4425 20.9145 15.6853C20.9145 15.9977 20.6109 16.1803 20.3754 16.1803H19.0148V15.1903Z" fill="#016FD0"/>
<path id="path3054" d="M23.7759 18.8396H22.5762V14.1374H23.7759V18.8396Z" fill="#016FD0"/>
<path id="path3056" d="M26.6213 18.8396H26.3624C25.1094 18.8396 24.3486 17.852 24.3486 16.5078C24.3486 15.1305 25.1009 14.1374 26.6832 14.1374H27.9818V15.2511H26.6357C25.9934 15.2511 25.5391 15.7526 25.5391 16.5194C25.5391 17.4301 26.0585 17.8126 26.8068 17.8126H27.116L26.6213 18.8396Z" fill="#016FD0"/>
<path id="path3058" d="M29.1757 14.1385L27.1543 18.8407H28.4704L28.8433 17.8991H31.0117L31.3827 18.8407H32.7278L30.7083 14.1385H29.1757ZM29.9236 15.2328L30.5846 16.8782H29.2608L29.9236 15.2328Z" fill="#016FD0"/>
<path id="path3060" d="M32.8672 18.8396V14.1374H34.3611L36.2685 17.0918V14.1374H37.4435V18.8396H35.9979L34.0422 15.8079V18.8396H32.8672Z" fill="#016FD0"/>
<path id="path3062" d="M9.48926 27.069V22.3668H13.3234V23.4186H10.6766V24.2229H13.2616V25.2129H10.6766V26.0481H13.3234V27.069H9.48926Z" fill="#016FD0"/>
<path id="path3064" d="M28.2773 27.069V22.3668H32.1115V23.4186H29.4647V24.2229H32.0373V25.2129H29.4647V26.0481H32.1115V27.069H28.2773Z" fill="#016FD0"/>
<path id="path3066" d="M13.4741 27.069L15.341 24.7469L13.4297 22.3668H14.91L16.0483 23.8381L17.1904 22.3668H18.6128L16.7266 24.7179L18.5969 27.069H17.1168L16.0116 25.6208L14.9332 27.069H13.4741Z" fill="#016FD0"/>
<path id="path3068" d="M18.7324 22.3668V27.069H19.9383V25.5841H21.1752C22.2217 25.5841 23.015 25.0286 23.015 23.9484C23.015 23.0535 22.3928 22.3668 21.3278 22.3668H18.7324ZM19.9383 23.4302H21.2409C21.579 23.4302 21.8206 23.6375 21.8206 23.9716C21.8206 24.2854 21.5802 24.5129 21.237 24.5129H19.9383V23.4302Z" fill="#016FD0"/>
<path id="path3072" d="M23.5273 22.3668V27.069H24.7023V25.3985H25.1971L26.6059 27.069H28.0418L26.4957 25.3366C27.1302 25.283 27.7848 24.7382 27.7848 23.8923C27.7848 22.9028 27.0085 22.3668 26.1421 22.3668H23.5273ZM24.7023 23.4186H26.0455C26.3677 23.4186 26.602 23.6707 26.602 23.9136C26.602 24.2259 26.2984 24.4085 26.0629 24.4085H24.7023V23.4186Z" fill="#016FD0"/>
<path id="path3074" d="M32.6541 27.069V26.0481H35.0056C35.3535 26.0481 35.5042 25.86 35.5042 25.6537C35.5042 25.456 35.354 25.2562 35.0056 25.2562H33.943C33.0193 25.2562 32.5049 24.6931 32.5049 23.8478C32.5049 23.0939 32.976 22.3668 34.3485 22.3668H36.6367L36.1419 23.4248H34.163C33.7847 23.4248 33.6683 23.6234 33.6683 23.813C33.6683 24.0079 33.8122 24.2229 34.1012 24.2229H35.2143C36.244 24.2229 36.6908 24.8073 36.6908 25.5725C36.6908 26.3952 36.1929 27.069 35.1583 27.069H32.6541Z" fill="#016FD0"/>
<path id="path3076" d="M36.9666 27.069V26.0481H39.3181C39.666 26.0481 39.8167 25.86 39.8167 25.6537C39.8167 25.456 39.6665 25.2562 39.3181 25.2562H38.2555C37.3318 25.2562 36.8174 24.6931 36.8174 23.8478C36.8174 23.0939 37.2885 22.3668 38.661 22.3668H40.9492L40.4544 23.4248H38.4755C38.0972 23.4248 37.9808 23.6234 37.9808 23.813C37.9808 24.0079 38.1247 24.2229 38.4137 24.2229H39.5268C40.5565 24.2229 41.0033 24.8073 41.0033 25.5725C41.0033 26.3952 40.5054 27.069 39.4708 27.069H36.9666Z" fill="#016FD0"/>
</g>
</g>
<defs>
<clipPath id="clip0_1117_23490">
<rect width="40.0802" height="40" fill="white" transform="translate(0.922852 0.00012207)"/>
</clipPath>
</defs>
</svg>
