<svg width="49" height="30" viewBox="0 0 49 30" fill="none" xmlns="http://www.w3.org/2000/svg">
<g id="Group">
<g id="Group_2">
<path id="Vector" d="M30.8751 3.20465H17.7344V26.788H30.8751V3.20465Z" fill="#FF5F00"/>
<path id="Vector_2" d="M18.5674 14.9966C18.5674 10.4133 20.695 6.0383 24.2826 3.20497C17.7748 -1.92003 8.34682 -0.795034 3.21566 5.74663C-1.9155 12.2466 -0.789145 21.6633 5.76038 26.7883C11.2253 31.08 18.8594 31.08 24.3243 26.7883C20.695 23.955 18.5674 19.58 18.5674 14.9966Z" fill="#EB001B"/>
<path id="Vector_3" d="M48.6034 14.9966C48.6034 23.2883 41.887 29.9966 33.5853 29.9966C30.2063 29.9966 26.9524 28.8716 24.3242 26.7883C30.832 21.6633 31.9584 12.2466 26.8272 5.70497C26.0763 4.7883 25.242 3.9133 24.3242 3.20497C30.832 -1.92003 40.3017 -0.795034 45.3912 5.74663C47.477 8.37163 48.6034 11.6216 48.6034 14.9966Z" fill="#F79E1B"/>
<path id="Vector_4" d="M47.1865 24.2882V23.7882H47.3951V23.7049H46.8945V23.7882H47.1031V24.2882H47.1865ZM48.146 24.2882V23.7049H47.9792L47.8123 24.1216L47.6454 23.7049H47.4786V24.2882H47.6037V23.8299L47.7706 24.2049H47.8957L48.0626 23.8299V24.2882H48.146Z" fill="#F79E1B"/>
</g>
</g>
</svg>
