<svg width="26" height="29" viewBox="0 0 26 29" fill="none" xmlns="http://www.w3.org/2000/svg">
<g id="basil:notification-solid">
<path id="Vector" fill-rule="evenodd" clip-rule="evenodd" d="M14.0839 3.5451C14.0839 3.23166 13.9698 2.93106 13.7666 2.70943C13.5634 2.48779 13.2879 2.36328 13.0006 2.36328C12.7132 2.36328 12.4377 2.48779 12.2345 2.70943C12.0314 2.93106 11.9172 3.23166 11.9172 3.5451V4.43146H11.3138C10.1525 4.43138 9.03483 4.91411 8.18831 5.78138C7.34179 6.64865 6.83006 7.83526 6.75731 9.09965L6.51789 13.2762C6.4266 14.8686 5.93647 16.4032 5.10089 17.7127C4.92825 17.9834 4.82275 18.2983 4.79468 18.6267C4.76661 18.955 4.8169 19.2857 4.94068 19.5866C5.06446 19.8875 5.2575 20.1483 5.50104 20.3436C5.74458 20.539 6.03032 20.6623 6.33048 20.7016L10.0214 21.1837V22.4542C10.0214 23.3161 10.3353 24.1428 10.894 24.7523C11.4527 25.3618 12.2104 25.7042 13.0006 25.7042C13.7907 25.7042 14.5484 25.3618 15.1071 24.7523C15.6659 24.1428 15.9797 23.3161 15.9797 22.4542V21.1837L19.6706 20.7004C19.9706 20.661 20.2562 20.5377 20.4996 20.3424C20.7429 20.1471 20.9359 19.8864 21.0596 19.5858C21.1834 19.2851 21.2337 18.9546 21.2058 18.6264C21.1779 18.2982 21.0726 17.9834 20.9002 17.7127C20.0646 16.4032 19.5745 14.8686 19.4832 13.2762L19.2438 9.10083C19.1713 7.83623 18.6597 6.64933 17.8132 5.78181C16.9666 4.91429 15.8488 4.4314 14.6873 4.43146H14.0839V3.5451ZM11.6464 22.4542C11.6464 22.846 11.7891 23.2217 12.043 23.4988C12.297 23.7758 12.6414 23.9315 13.0006 23.9315C13.3597 23.9315 13.7041 23.7758 13.9581 23.4988C14.2121 23.2217 14.3547 22.846 14.3547 22.4542V21.5678H11.6464V22.4542Z" fill="black"/>
</g>
</svg>
