<svg width="24" height="24" viewBox="0 0 24 24" fill="none" xmlns="http://www.w3.org/2000/svg">
<g id="mage:dashboard">
<path id="Vector" d="M19.1422 13.75H15.2672C14.7537 13.75 14.2611 13.9534 13.8972 14.3156C13.5333 14.6779 13.3276 15.1695 13.3252 15.683V19.558C13.3252 20.0731 13.5298 20.567 13.894 20.9312C14.2582 21.2954 14.7522 21.5 15.2672 21.5H19.1422C19.6555 21.4974 20.1469 21.2916 20.509 20.9277C20.871 20.5638 21.0742 20.0713 21.0742 19.558V15.683C21.0742 15.1706 20.8707 14.6792 20.5083 14.3169C20.146 13.9545 19.6546 13.751 19.1422 13.751M8.38122 13.75H4.50622C3.99281 13.7529 3.50142 13.9589 3.13942 14.323C2.77741 14.687 2.57421 15.1796 2.57422 15.693V19.568C2.57422 20.0804 2.77777 20.5718 3.14009 20.9341C3.50241 21.2964 3.99382 21.5 4.50622 21.5H8.38122C8.89454 21.5 9.38699 21.2968 9.7509 20.9347C10.1148 20.5727 10.3206 20.0813 10.3232 19.568V15.693C10.3232 15.1779 10.1186 14.684 9.75442 14.3198C9.39022 13.9556 8.89627 13.751 8.38122 13.751M8.38122 3H4.50622C4.25251 3 4.00128 3.04997 3.76687 3.14706C3.53247 3.24416 3.31949 3.38647 3.14009 3.56587C2.96069 3.74527 2.81838 3.95825 2.72128 4.19266C2.62419 4.42706 2.57422 4.67829 2.57422 4.932V8.807C2.57421 9.32032 2.77744 9.81277 3.13948 10.1767C3.50151 10.5406 3.9929 10.7464 4.50622 10.749H8.38122C8.89627 10.749 9.39022 10.5444 9.75442 10.1802C10.1186 9.81601 10.3232 9.32205 10.3232 8.807V4.932C10.3206 4.41868 10.1148 3.92729 9.7509 3.56526C9.38699 3.20322 8.89454 2.99999 8.38122 3ZM19.1422 3H15.2672C14.7539 2.99999 14.2615 3.20322 13.8975 3.56526C13.5336 3.92729 13.3279 4.41868 13.3252 4.932V8.807C13.3255 9.32197 13.5302 9.81577 13.8943 10.1799C14.2584 10.544 14.7522 10.7487 15.2672 10.749H19.1422C19.6555 10.7464 20.1469 10.5406 20.509 10.1767C20.871 9.81277 21.0742 9.32032 21.0742 8.807V4.932C21.0742 4.4196 20.8707 3.92819 20.5083 3.56587C20.146 3.20355 19.6546 3 19.1422 3Z" stroke="white" stroke-width="1.5" stroke-linecap="round" stroke-linejoin="round"/>
</g>
</svg>
