<svg width="30" height="30" viewBox="0 0 30 30" fill="none" xmlns="http://www.w3.org/2000/svg">
<path d="M21.7138 24.7837L25.2638 21.2887L24.4812 20.505L21.7138 23.2337L20.5188 22.015L19.735 22.805L21.7138 24.7837ZM8.4625 10.9125H21.54V9.6625H8.46125L8.4625 10.9125ZM22.5 27.6437C21.1075 27.6437 19.9258 27.1588 18.955 26.1888C17.9842 25.2188 17.4992 24.0371 17.5 22.6437C17.5 21.2521 17.985 20.0708 18.955 19.1C19.925 18.1292 21.1067 17.6437 22.5 17.6437C23.8925 17.6437 25.0742 18.1292 26.045 19.1C27.0158 20.0708 27.5008 21.2521 27.5 22.6437C27.5 24.0371 27.015 25.2188 26.045 26.1888C25.0733 27.1588 23.8917 27.6437 22.5 27.6437ZM5 25.9625V5H25V14.45C24.7967 14.375 24.5946 14.3108 24.3937 14.2575C24.1937 14.2042 23.9792 14.1625 23.75 14.1325V6.25H6.25V23.8125H14.18C14.2367 24.1542 14.31 24.4883 14.4 24.815C14.4908 25.1417 14.6171 25.4533 14.7787 25.75L14.735 25.7938L13.3175 24.76L11.635 25.9612L9.9525 24.76L8.26875 25.9612L6.58625 24.76L5 25.9625ZM8.4625 20.3375H14.3488C14.3954 20.1083 14.4529 19.8938 14.5212 19.6938C14.5904 19.4938 14.6708 19.2917 14.7625 19.0875H8.4625V20.3375ZM8.4625 15.6263H17.6C18.0083 15.3038 18.4458 15.035 18.9125 14.82C19.3792 14.6042 19.8779 14.4563 20.4087 14.3763H8.46125L8.4625 15.6263Z" fill="white"/>
</svg>
