<svg width="372" height="372" viewBox="0 0 372 372" fill="none" xmlns="http://www.w3.org/2000/svg">
<path d="M186 372C136.67 372 89.3599 352.404 54.4781 317.522C19.5964 282.64 0 235.33 0 186C0 136.67 19.5964 89.3599 54.4781 54.4781C89.3599 19.5964 136.67 0 186 0C235.33 0 282.64 19.5964 317.522 54.4781C352.404 89.3599 372 136.67 372 186C372 235.33 352.404 282.64 317.522 317.522C282.64 352.404 235.33 372 186 372ZM148.8 279L316.2 120.9L288.3 93L148.8 223.2L83.7 158.1L55.8 186L148.8 279Z" fill="#21A60C"/>
</svg>
