<svg width="78" height="26" viewBox="0 0 78 26" fill="none" xmlns="http://www.w3.org/2000/svg">
<g id="visa_inc_logo.svg" clip-path="url(#clip0_1117_23488)">
<path id="path3789" d="M50.9806 0.500122C45.4978 0.500122 40.5751 3.35306 40.5751 8.58836C40.5751 14.6178 49.2709 15.0295 49.2709 18.0295C49.2709 19.2942 47.7971 20.4413 45.3209 20.4413C41.7836 20.4413 39.1307 18.8531 39.1307 18.8531L38.0105 24.1472C38.0105 24.1472 41.0467 25.5001 45.1146 25.5001C51.128 25.5001 55.8444 22.5295 55.8444 17.1766C55.8444 10.8237 47.1191 10.4119 47.1191 7.61777C47.1191 6.61777 48.3277 5.52953 50.8038 5.52953C53.6041 5.52953 55.9034 6.67659 55.9034 6.67659L57.0235 1.55895C56.9941 1.55895 54.4885 0.500122 50.9806 0.500122ZM0.750903 0.882475L0.603516 1.64718C0.603516 1.64718 2.90276 2.05895 4.99567 2.91189C7.67813 3.88248 7.85499 4.4413 8.32663 6.17659L13.2494 25.0884H19.8524L29.9632 0.882475H23.3897L16.8751 17.3531L14.2221 3.38248C13.9863 1.79424 12.7483 0.882475 11.2154 0.882475H0.750903ZM32.6161 0.882475L27.4576 25.0884H33.7363L38.8654 0.882475H32.6161ZM67.5765 0.882475C66.0731 0.882475 65.2773 1.67659 64.6877 3.08836L55.4907 25.0884H62.0642L63.3317 21.4119H71.3496L72.116 25.0884H77.9231L72.8825 0.882475H67.5765ZM68.4314 7.4413L70.3769 16.5295H65.1593L68.4314 7.4413Z" fill="#1434CB"/>
</g>
<defs>
<clipPath id="clip0_1117_23488">
<rect width="77.3196" height="25" fill="white" transform="translate(0.603516 0.500122)"/>
</clipPath>
</defs>
</svg>
