<svg width="25" height="24" viewBox="0 0 25 24" fill="none" xmlns="http://www.w3.org/2000/svg">
<g id="flat-color-icons:google">
<path id="Vector" d="M22.3377 10.0415H21.5322V10H12.5322V14H18.1837C17.3592 16.3285 15.1437 18 12.5322 18C9.21873 18 6.53223 15.3135 6.53223 12C6.53223 8.6865 9.21873 6 12.5322 6C14.0617 6 15.4532 6.577 16.5127 7.5195L19.3412 4.691C17.5552 3.0265 15.1662 2 12.5322 2C7.00973 2 2.53223 6.4775 2.53223 12C2.53223 17.5225 7.00973 22 12.5322 22C18.0547 22 22.5322 17.5225 22.5322 12C22.5322 11.3295 22.4632 10.675 22.3377 10.0415Z" fill="#FFC107"/>
<path id="Vector_2" d="M3.68506 7.3455L6.97056 9.755C7.85956 7.554 10.0126 6 12.5321 6C14.0616 6 15.4531 6.577 16.5126 7.5195L19.3411 4.691C17.5551 3.0265 15.1661 2 12.5321 2C8.69106 2 5.36006 4.1685 3.68506 7.3455Z" fill="#FF3D00"/>
<path id="Vector_3" d="M12.5324 21.9999C15.1154 21.9999 17.4624 21.0114 19.2369 19.4039L16.1419 16.7849C15.1042 17.574 13.8361 18.0009 12.5324 17.9999C9.93138 17.9999 7.72288 16.3414 6.89088 14.0269L3.62988 16.5394C5.28488 19.7779 8.64588 21.9999 12.5324 21.9999Z" fill="#4CAF50"/>
<path id="Vector_4" d="M22.3377 10.0415H21.5322V10H12.5322V14H18.1837C17.7893 15.1082 17.0789 16.0766 16.1402 16.7855L16.1417 16.7845L19.2367 19.4035C19.0177 19.6025 22.5322 17 22.5322 12C22.5322 11.3295 22.4632 10.675 22.3377 10.0415Z" fill="#1976D2"/>
</g>
</svg>
