<svg width="21" height="20" viewBox="0 0 21 20" fill="none" xmlns="http://www.w3.org/2000/svg">
<path d="M17.5322 0H3.53223C1.87537 0 0.532227 1.34315 0.532227 3V17C0.532227 18.6569 1.87537 20 3.53223 20H17.5322C19.1891 20 20.5322 18.6569 20.5322 17V3C20.5322 1.34315 19.1891 0 17.5322 0Z" fill="black"/>
<path d="M17.5322 0H3.53223C1.87537 0 0.532227 1.34315 0.532227 3V17C0.532227 18.6569 1.87537 20 3.53223 20H17.5322C19.1891 20 20.5322 18.6569 20.5322 17V3C20.5322 1.34315 19.1891 0 17.5322 0Z" fill="url(#paint0_radial_18_4207)"/>
<path d="M17.5322 0H3.53223C1.87537 0 0.532227 1.34315 0.532227 3V17C0.532227 18.6569 1.87537 20 3.53223 20H17.5322C19.1891 20 20.5322 18.6569 20.5322 17V3C20.5322 1.34315 19.1891 0 17.5322 0Z" fill="url(#paint1_linear_18_4207)"/>
<path d="M13.3838 3.98438H7.68066C5.9332 3.98438 4.5166 5.40097 4.5166 7.14844V12.8516C4.5166 14.599 5.9332 16.0156 7.68066 16.0156H13.3838C15.1313 16.0156 16.5479 14.599 16.5479 12.8516V7.14844C16.5479 5.40097 15.1313 3.98438 13.3838 3.98438Z" stroke="white" stroke-width="1.11328"/>
<path d="M10.5322 12.8125C12.0855 12.8125 13.3447 11.5533 13.3447 10C13.3447 8.4467 12.0855 7.1875 10.5322 7.1875C8.97893 7.1875 7.71973 8.4467 7.71973 10C7.71973 11.5533 8.97893 12.8125 10.5322 12.8125Z" stroke="white" stroke-width="1.11328"/>
<path d="M14.0869 6.67969C14.2164 6.67969 14.3213 6.57475 14.3213 6.44531C14.3213 6.31587 14.2164 6.21094 14.0869 6.21094C13.9575 6.21094 13.8525 6.31587 13.8525 6.44531C13.8525 6.57475 13.9575 6.67969 14.0869 6.67969Z" stroke="white" stroke-width="1.11328"/>
<defs>
<radialGradient id="paint0_radial_18_4207" cx="0" cy="0" r="1" gradientUnits="userSpaceOnUse" gradientTransform="translate(8.53223 20) scale(20)">
<stop offset="0.1" stop-color="#FFDD55"/>
<stop offset="0.5" stop-color="#FF543E"/>
<stop offset="1" stop-color="#C837AB"/>
</radialGradient>
<linearGradient id="paint1_linear_18_4207" x1="0.532227" y1="0" x2="4.53223" y2="20" gradientUnits="userSpaceOnUse">
<stop offset="0.1" stop-color="#3771C8"/>
<stop offset="0.5" stop-color="#6600FF" stop-opacity="0"/>
</linearGradient>
</defs>
</svg>
