<svg width="29" height="28" viewBox="0 0 29 28" fill="none" xmlns="http://www.w3.org/2000/svg">
<g id="bxl:linkedin">
<path id="Vector" d="M6.34563 8.39635C7.75543 8.39635 8.8983 7.25348 8.8983 5.84368C8.8983 4.43388 7.75543 3.29102 6.34563 3.29102C4.93584 3.29102 3.79297 4.43388 3.79297 5.84368C3.79297 7.25348 4.93584 8.39635 6.34563 8.39635Z" fill="#0A66C2"/>
<path id="Vector_2" d="M11.3087 10.331V24.4931H15.7059V17.4896C15.7059 15.6416 16.0536 13.852 18.3449 13.852C20.6047 13.852 20.6327 15.9648 20.6327 17.6063V24.4943H25.0322V16.7278C25.0322 12.9128 24.2109 9.98096 19.7519 9.98096C17.6111 9.98096 16.1761 11.1558 15.5892 12.2676H15.5297V10.331H11.3087ZM4.14307 10.331H8.54723V24.4931H4.14307V10.331Z" fill="#0A66C2"/>
</g>
</svg>
