<svg width="20" height="20" viewBox="0 0 20 20" fill="none" xmlns="http://www.w3.org/2000/svg">
<path d="M3.33301 7.5H4.99967V2.5H6.66634L9.51634 7.5H13.333V2.5H14.9997V7.5H16.6663V9.16667H14.9997V10.8333H16.6663V12.5H14.9997V17.5H13.333L10.4747 12.5H6.66634V17.5H4.99967V12.5H3.33301V10.8333H4.99967V9.16667H3.33301V7.5ZM6.66634 7.5H7.60801L6.66634 5.85833V7.5ZM6.66634 9.16667V10.8333H9.51634L8.56634 9.16667H6.66634ZM13.333 14.1667V12.5H12.3747L13.333 14.1667ZM10.4663 9.16667L11.4247 10.8333H13.333V9.16667H10.4663Z" fill="black"/>
</svg>
