<svg width="25" height="24" viewBox="0 0 25 24" fill="none" xmlns="http://www.w3.org/2000/svg">
<g id="gg:profile">
<g id="Group">
<path id="Vector" fill-rule="evenodd" clip-rule="evenodd" d="M16.9258 9C16.9258 10.0609 16.5044 11.0783 15.7542 11.8284C15.0041 12.5786 13.9866 13 12.9258 13C11.8649 13 10.8475 12.5786 10.0974 11.8284C9.34721 11.0783 8.92578 10.0609 8.92578 9C8.92578 7.93913 9.34721 6.92172 10.0974 6.17157C10.8475 5.42143 11.8649 5 12.9258 5C13.9866 5 15.0041 5.42143 15.7542 6.17157C16.5044 6.92172 16.9258 7.93913 16.9258 9ZM14.9258 9C14.9258 9.53043 14.7151 10.0391 14.34 10.4142C13.9649 10.7893 13.4562 11 12.9258 11C12.3953 11 11.8866 10.7893 11.5116 10.4142C11.1365 10.0391 10.9258 9.53043 10.9258 9C10.9258 8.46957 11.1365 7.96086 11.5116 7.58579C11.8866 7.21071 12.3953 7 12.9258 7C13.4562 7 13.9649 7.21071 14.34 7.58579C14.7151 7.96086 14.9258 8.46957 14.9258 9Z" fill="white"/>
<path id="Vector_2" fill-rule="evenodd" clip-rule="evenodd" d="M12.9258 1C6.85078 1 1.92578 5.925 1.92578 12C1.92578 18.075 6.85078 23 12.9258 23C19.0008 23 23.9258 18.075 23.9258 12C23.9258 5.925 19.0008 1 12.9258 1ZM3.92578 12C3.92578 14.09 4.63878 16.014 5.83378 17.542C6.67301 16.4399 7.75568 15.5467 8.99721 14.9323C10.2387 14.3179 11.6055 13.9988 12.9908 14C14.3581 13.9987 15.7077 14.3095 16.9367 14.9088C18.1657 15.508 19.2417 16.3799 20.0828 17.458C20.9492 16.3216 21.5326 14.9952 21.7847 13.5886C22.0367 12.182 21.9502 10.7355 21.5323 9.36898C21.1143 8.00243 20.377 6.75505 19.3813 5.73004C18.3855 4.70503 17.16 3.93186 15.8062 3.47451C14.4523 3.01716 13.009 2.88877 11.5956 3.09997C10.1823 3.31117 8.83957 3.85589 7.67855 4.68905C6.51753 5.52222 5.57159 6.61987 4.91901 7.8912C4.26643 9.16252 3.92596 10.571 3.92578 12ZM12.9258 21C10.8597 21.0031 8.85605 20.2923 7.25378 18.988C7.89871 18.0647 8.75712 17.3109 9.75597 16.7907C10.7548 16.2705 11.8646 15.9992 12.9908 16C14.1029 15.9991 15.1993 16.2636 16.1887 16.7714C17.1781 17.2793 18.0321 18.0159 18.6798 18.92C17.0651 20.2667 15.0284 21.0029 12.9258 21Z" fill="white"/>
</g>
</g>
</svg>
