<svg width="25" height="24" viewBox="0 0 25 24" fill="none" xmlns="http://www.w3.org/2000/svg">
<g id="settings" clip-path="url(#clip0_1117_23577)">
<path id="Vector" d="M12.9258 15C14.5826 15 15.9258 13.6569 15.9258 12C15.9258 10.3431 14.5826 9 12.9258 9C11.2689 9 9.92578 10.3431 9.92578 12C9.92578 13.6569 11.2689 15 12.9258 15Z" stroke="white" stroke-width="2" stroke-linecap="round" stroke-linejoin="round"/>
<path id="Vector_2" d="M20.3258 15C20.1927 15.3016 20.153 15.6362 20.2118 15.9606C20.2706 16.285 20.4252 16.5843 20.6558 16.82L20.7158 16.88C20.9017 17.0657 21.0493 17.2863 21.1499 17.5291C21.2505 17.7719 21.3024 18.0322 21.3024 18.295C21.3024 18.5578 21.2505 18.8181 21.1499 19.0609C21.0493 19.3037 20.9017 19.5243 20.7158 19.71C20.53 19.896 20.3095 20.0435 20.0667 20.1441C19.8239 20.2448 19.5636 20.2966 19.3008 20.2966C19.038 20.2966 18.7777 20.2448 18.5349 20.1441C18.2921 20.0435 18.0715 19.896 17.8858 19.71L17.8258 19.65C17.5901 19.4195 17.2908 19.2648 16.9664 19.206C16.642 19.1472 16.3074 19.1869 16.0058 19.32C15.71 19.4468 15.4578 19.6572 15.2801 19.9255C15.1024 20.1938 15.0071 20.5082 15.0058 20.83V21C15.0058 21.5304 14.7951 22.0391 14.42 22.4142C14.0449 22.7893 13.5362 23 13.0058 23C12.4753 23 11.9666 22.7893 11.5916 22.4142C11.2165 22.0391 11.0058 21.5304 11.0058 21V20.91C10.998 20.579 10.8909 20.258 10.6983 19.9887C10.5057 19.7194 10.2365 19.5143 9.92578 19.4C9.62417 19.2669 9.28959 19.2272 8.96519 19.286C8.6408 19.3448 8.34146 19.4995 8.10578 19.73L8.04578 19.79C7.86003 19.976 7.63946 20.1235 7.39666 20.2241C7.15387 20.3248 6.89361 20.3766 6.63078 20.3766C6.36795 20.3766 6.1077 20.3248 5.8649 20.2241C5.6221 20.1235 5.40153 19.976 5.21578 19.79C5.02983 19.6043 4.88231 19.3837 4.78166 19.1409C4.68101 18.8981 4.62921 18.6378 4.62921 18.375C4.62921 18.1122 4.68101 17.8519 4.78166 17.6091C4.88231 17.3663 5.02983 17.1457 5.21578 16.96L5.27578 16.9C5.50632 16.6643 5.66097 16.365 5.71979 16.0406C5.7786 15.7162 5.7389 15.3816 5.60578 15.08C5.47902 14.7842 5.26854 14.532 5.00025 14.3543C4.73196 14.1766 4.41757 14.0813 4.09578 14.08H3.92578C3.39535 14.08 2.88664 13.8693 2.51157 13.4942C2.13649 13.1191 1.92578 12.6104 1.92578 12.08C1.92578 11.5496 2.13649 11.0409 2.51157 10.6658C2.88664 10.2907 3.39535 10.08 3.92578 10.08H4.01578C4.34678 10.0723 4.66779 9.96512 4.93708 9.77251C5.20637 9.5799 5.4115 9.31074 5.52578 9C5.6589 8.69838 5.6986 8.36381 5.63979 8.03941C5.58097 7.71502 5.42632 7.41568 5.19578 7.18L5.13578 7.12C4.94983 6.93425 4.80231 6.71368 4.70166 6.47088C4.60101 6.22808 4.54921 5.96783 4.54921 5.705C4.54921 5.44217 4.60101 5.18192 4.70166 4.93912C4.80231 4.69632 4.94983 4.47575 5.13578 4.29C5.32153 4.10405 5.5421 3.95653 5.7849 3.85588C6.0277 3.75523 6.28795 3.70343 6.55078 3.70343C6.81361 3.70343 7.07387 3.75523 7.31666 3.85588C7.55946 3.95653 7.78004 4.10405 7.96578 4.29L8.02578 4.35C8.26146 4.58054 8.5608 4.73519 8.88519 4.794C9.20959 4.85282 9.54417 4.81312 9.84578 4.68H9.92578C10.2216 4.55324 10.4738 4.34276 10.6515 4.07447C10.8291 3.80618 10.9245 3.49179 10.9258 3.17V3C10.9258 2.46957 11.1365 1.96086 11.5116 1.58579C11.8866 1.21071 12.3953 1 12.9258 1C13.4562 1 13.9649 1.21071 14.34 1.58579C14.7151 1.96086 14.9258 2.46957 14.9258 3V3.09C14.9271 3.41179 15.0224 3.72618 15.2001 3.99447C15.3778 4.26276 15.63 4.47324 15.9258 4.6C16.2274 4.73312 16.562 4.77282 16.8864 4.714C17.2108 4.65519 17.5101 4.50054 17.7458 4.27L17.8058 4.21C17.9915 4.02405 18.2121 3.87653 18.4549 3.77588C18.6977 3.67523 18.958 3.62343 19.2208 3.62343C19.4836 3.62343 19.7439 3.67523 19.9867 3.77588C20.2295 3.87653 20.45 4.02405 20.6358 4.21C20.8217 4.39575 20.9693 4.61632 21.0699 4.85912C21.1705 5.10192 21.2224 5.36217 21.2224 5.625C21.2224 5.88783 21.1705 6.14808 21.0699 6.39088C20.9693 6.63368 20.8217 6.85425 20.6358 7.04L20.5758 7.1C20.3452 7.33568 20.1906 7.63502 20.1318 7.95941C20.073 8.28381 20.1127 8.61838 20.2458 8.92V9C20.3725 9.29577 20.583 9.54802 20.8513 9.72569C21.1196 9.90337 21.434 9.99872 21.7558 10H21.9258C22.4562 10 22.9649 10.2107 23.34 10.5858C23.7151 10.9609 23.9258 11.4696 23.9258 12C23.9258 12.5304 23.7151 13.0391 23.34 13.4142C22.9649 13.7893 22.4562 14 21.9258 14H21.8358C21.514 14.0013 21.1996 14.0966 20.9313 14.2743C20.663 14.452 20.4525 14.7042 20.3258 15Z" stroke="white" stroke-width="2" stroke-linecap="round" stroke-linejoin="round"/>
</g>
<defs>
<clipPath id="clip0_1117_23577">
<rect width="24" height="24" fill="white" transform="translate(0.925781)"/>
</clipPath>
</defs>
</svg>
