<svg width="24" height="24" viewBox="0 0 24 24" fill="#BCB7B7"  fill-opacity="0.33" xmlns="http://www.w3.org/2000/svg">
<g id="mdi:eye-off-outline">
<path id="Vector" d="M1.54039 6.28099L2.6046 5.2251L16.5058 19.1263L15.4499 20.1905L12.8891 17.6297C11.933 17.9457 10.9187 18.1119 9.85449 18.1119C5.69744 18.1119 2.14732 15.5263 0.708984 11.8764C1.28266 10.4131 2.19721 9.12441 3.36118 8.10178L1.54039 6.28099ZM9.85449 9.38215C10.516 9.38215 11.1504 9.64493 11.6182 10.1127C12.0859 10.5804 12.3487 11.2149 12.3487 11.8764C12.3491 12.1595 12.3013 12.4407 12.2074 12.7078L9.02308 9.52349C9.29019 9.42952 9.57134 9.38173 9.85449 9.38215ZM9.85449 5.6408C14.0115 5.6408 17.5617 8.22649 19 11.8764C18.3214 13.6001 17.1684 15.0962 15.6744 16.1914L14.4938 15.0025C15.6435 14.2071 16.5708 13.131 17.1875 11.8764C16.5154 10.5045 15.4719 9.3487 14.1756 8.54035C12.8793 7.732 11.3822 7.30352 9.85449 7.30362C8.94826 7.30362 8.05865 7.45328 7.22724 7.71933L5.94687 6.44727C7.1441 5.9318 8.46604 5.6408 9.85449 5.6408ZM2.52146 11.8764C3.1936 13.2483 4.23713 14.4041 5.53343 15.2124C6.82973 16.0208 8.32681 16.4492 9.85449 16.4491C10.4282 16.4491 10.9935 16.3909 11.5173 16.2745L9.6217 14.3706C9.04317 14.3086 8.50331 14.0504 8.09188 13.639C7.68046 13.2276 7.42227 12.6877 7.36026 12.1092L4.53347 9.27406C3.71037 9.98076 3.0203 10.8621 2.52146 11.8764Z" />
</g>
</svg>
