<svg width="25" height="25" viewBox="0 0 25 25" fill="none" xmlns="http://www.w3.org/2000/svg">
<g clip-path="url(#clip0_1006_3329)">
<path d="M3.5 14.5H21.5" stroke="black" stroke-width="2" stroke-linecap="round" stroke-linejoin="round"/>
<path d="M3.5 6.5H21.5" stroke="black" stroke-width="2" stroke-linecap="round" stroke-linejoin="round"/>
<path d="M3.5 22.5H21.5" stroke="black" stroke-width="2" stroke-linecap="round" stroke-linejoin="round"/>
<path d="M2.5 15.5C3.05228 15.5 3.5 15.0523 3.5 14.5C3.5 13.9477 3.05228 13.5 2.5 13.5C1.94772 13.5 1.5 13.9477 1.5 14.5C1.5 15.0523 1.94772 15.5 2.5 15.5Z" stroke="black" stroke-width="2" stroke-linecap="round" stroke-linejoin="round"/>
<path d="M2.5 7.5C3.05228 7.5 3.5 7.05228 3.5 6.5C3.5 5.94772 3.05228 5.5 2.5 5.5C1.94772 5.5 1.5 5.94772 1.5 6.5C1.5 7.05228 1.94772 7.5 2.5 7.5Z" stroke="black" stroke-width="2" stroke-linecap="round" stroke-linejoin="round"/>
<path d="M2.5 23.5C3.05228 23.5 3.5 23.0523 3.5 22.5C3.5 21.9477 3.05228 21.5 2.5 21.5C1.94772 21.5 1.5 21.9477 1.5 22.5C1.5 23.0523 1.94772 23.5 2.5 23.5Z" stroke="black" stroke-width="2" stroke-linecap="round" stroke-linejoin="round"/>
</g>
<defs>
<clipPath id="clip0_1006_3329">
<rect width="24" height="24" fill="white" transform="translate(0.5 0.5)"/>
</clipPath>
</defs>
</svg>
