<svg width="19" height="18" viewBox="0 0 19 18" fill="none" xmlns="http://www.w3.org/2000/svg">
<g id="edit-2">
<path id="Vector" d="M13.25 2.25023C13.447 2.05324 13.6808 1.89699 13.9382 1.79038C14.1956 1.68378 14.4714 1.62891 14.75 1.62891C15.0286 1.62891 15.3044 1.68378 15.5618 1.79038C15.8192 1.89699 16.053 2.05324 16.25 2.25023C16.447 2.44721 16.6032 2.68106 16.7098 2.93843C16.8165 3.1958 16.8713 3.47165 16.8713 3.75023C16.8713 4.0288 16.8165 4.30465 16.7098 4.56202C16.6032 4.81939 16.447 5.05324 16.25 5.25023L6.125 15.3752L2 16.5002L3.125 12.3752L13.25 2.25023Z" stroke="black" stroke-linecap="round" stroke-linejoin="round"/>
</g>
</svg>
