<svg width="17" height="16" viewBox="0 0 17 16" fill="none" xmlns="http://www.w3.org/2000/svg">
<g clip-path="url(#clip0_842_7326)">
<path d="M9.334 0.0661444C10.097 0.153144 10.834 0.361144 11.344 0.950144C11.849 1.53114 12 2.32814 12 3.25014C12 3.71714 11.913 4.36914 11.843 4.88714L11.828 5.00014H13.25C13.853 5.00014 14.424 5.08514 14.918 5.33314C15.426 5.58714 15.829 6.01214 16.055 6.53314C16.508 7.53114 16.493 8.98014 16.243 10.8491L16.203 11.1551C16.098 11.9451 16.008 12.6281 15.89 13.1881C15.759 13.8181 15.575 14.3971 15.222 14.8601C14.47 15.8471 13.206 16.0001 11.5 16.0001C9.652 16.0001 8.266 15.6671 7.112 15.3471C6.947 15.3021 6.789 15.2571 6.637 15.2141C5.979 15.0281 5.437 14.8741 4.912 14.7991C4.79651 15.1487 4.57372 15.4529 4.27533 15.6686C3.97694 15.8842 3.61814 16.0002 3.25 16.0001H2.25C1.78587 16.0001 1.34075 15.8158 1.01256 15.4876C0.684374 15.1594 0.5 14.7143 0.5 14.2501V6.75014C0.5 5.78414 1.284 5.00014 2.25 5.00014H3.25C3.55663 5.00011 3.85789 5.08065 4.12361 5.23369C4.38932 5.38673 4.61016 5.6069 4.764 5.87214C5.022 5.76714 5.354 5.60414 5.682 5.36414C6.353 4.87414 7 4.07914 7 2.75014V2.25014C7 1.04814 7.994 -0.0868556 9.334 0.0661444ZM5 13.3001C5.705 13.3881 6.39 13.5841 7.072 13.7781L7.513 13.9031C8.609 14.2081 9.847 14.5011 11.5 14.5011C13.294 14.5011 13.78 14.2781 14.028 13.9521C14.175 13.7591 14.304 13.4471 14.422 12.8821C14.527 12.3801 14.61 11.7581 14.717 10.9521L14.757 10.6521C15.007 8.77014 14.946 7.71914 14.689 7.15514C14.6052 6.94657 14.448 6.77584 14.247 6.67514C14.039 6.57114 13.727 6.50114 13.25 6.50114H11.5C10.814 6.50114 10.205 5.92414 10.294 5.16514C10.317 4.97314 10.344 4.77514 10.37 4.57914C10.435 4.09114 10.5 3.60914 10.5 3.25114C10.5 2.44214 10.356 2.10114 10.212 1.93514C10.075 1.77714 9.81 1.63114 9.164 1.55714C8.857 1.52114 8.5 1.79314 8.5 2.25014V2.75014C8.5 4.67214 7.522 5.87814 6.567 6.57514C6.08876 6.92305 5.56039 7.19617 5 7.38514V13.3001ZM3.25 6.50014H2.25C2.1837 6.50014 2.12011 6.52648 2.07322 6.57337C2.02634 6.62025 2 6.68384 2 6.75014V14.2501C2 14.3881 2.112 14.5001 2.25 14.5001H3.25C3.3163 14.5001 3.37989 14.4738 3.42678 14.4269C3.47366 14.38 3.5 14.3164 3.5 14.2501V6.75014C3.5 6.68384 3.47366 6.62025 3.42678 6.57337C3.37989 6.52648 3.3163 6.50014 3.25 6.50014Z" fill="black"/>
</g>
<defs>
<clipPath id="clip0_842_7326">
<rect width="16" height="16" fill="white" transform="translate(0.5)"/>
</clipPath>
</defs>
</svg>
