<svg width="24" height="24" viewBox="0 0 24 24" fill="none" xmlns="http://www.w3.org/2000/svg">
<path d="M9.05504 1.25C10.422 1.25 11.525 1.25 12.392 1.367C13.292 1.487 14.05 1.747 14.652 2.348C15.176 2.873 15.442 3.518 15.581 4.276C15.716 5.013 15.742 5.914 15.748 6.996C15.7491 7.19491 15.6711 7.3861 15.5312 7.5275C15.3913 7.6689 15.2009 7.74894 15.002 7.75C14.8031 7.75106 14.6119 7.67306 14.4705 7.53316C14.3291 7.39326 14.2491 7.20291 14.248 7.004C14.242 5.911 14.214 5.136 14.106 4.547C14.001 3.981 13.834 3.652 13.591 3.409C13.314 3.132 12.925 2.952 12.191 2.853C11.436 2.752 10.435 2.75 9.00004 2.75H8.00004C6.56404 2.75 5.56304 2.752 4.80804 2.853C4.07404 2.952 3.68604 3.133 3.40804 3.409C3.13204 3.686 2.95204 4.074 2.85304 4.809C2.75104 5.563 2.75004 6.565 2.75004 8V16C2.75004 17.435 2.75104 18.436 2.85304 19.192C2.95204 19.926 3.13204 20.314 3.40904 20.591C3.68604 20.868 4.07404 21.048 4.80804 21.147C5.56304 21.248 6.56404 21.25 8.00004 21.25H9.00004C10.435 21.25 11.436 21.248 12.192 21.147C12.925 21.048 13.314 20.867 13.591 20.591C13.834 20.347 14.001 20.019 14.106 19.453C14.214 18.864 14.242 18.089 14.248 16.996C14.2486 16.8975 14.2685 16.8001 14.3067 16.7093C14.3448 16.6185 14.4005 16.5361 14.4705 16.4668C14.5405 16.3976 14.6235 16.3428 14.7147 16.3056C14.8059 16.2684 14.9035 16.2495 15.002 16.25C15.1005 16.2505 15.198 16.2704 15.2887 16.3086C15.3795 16.3468 15.4619 16.4025 15.5312 16.4725C15.6005 16.5425 15.6553 16.6255 15.6925 16.7167C15.7297 16.8079 15.7486 16.9055 15.748 17.004C15.742 18.086 15.716 18.987 15.581 19.724C15.441 20.482 15.176 21.127 14.651 21.652C14.05 22.254 13.291 22.512 12.391 22.634C11.525 22.75 10.422 22.75 9.05504 22.75H7.94504C6.57704 22.75 5.47504 22.75 4.60804 22.634C3.70804 22.512 2.95004 22.254 2.34804 21.652C1.74604 21.05 1.48804 20.292 1.36604 19.392C1.25004 18.525 1.25004 17.422 1.25004 16.055V7.945C1.25004 6.578 1.25004 5.475 1.36604 4.608C1.48704 3.708 1.74604 2.95 2.34804 2.348C2.95004 1.746 3.70804 1.488 4.60804 1.367C5.47504 1.25 6.57804 1.25 7.94504 1.25H9.05504Z" fill="white"/>
<path d="M8.99944 11.2499C8.80053 11.2499 8.60977 11.3289 8.46911 11.4695C8.32846 11.6102 8.24944 11.801 8.24944 11.9999C8.24944 12.1988 8.32846 12.3896 8.46911 12.5302C8.60977 12.6709 8.80053 12.7499 8.99944 12.7499H19.9724L18.0114 14.4299C17.8603 14.5593 17.7667 14.7435 17.7513 14.9419C17.7359 15.1403 17.8 15.3367 17.9294 15.4879C18.0589 15.639 18.243 15.7326 18.4415 15.748C18.6399 15.7634 18.8363 15.6993 18.9874 15.5699L22.4874 12.5699C22.5698 12.4995 22.6359 12.4121 22.6812 12.3137C22.7265 12.2153 22.75 12.1082 22.75 11.9999C22.75 11.8915 22.7265 11.7845 22.6812 11.6861C22.6359 11.5877 22.5698 11.5003 22.4874 11.4299L18.9874 8.42987C18.9126 8.36579 18.8258 8.31708 18.7322 8.28651C18.6385 8.25595 18.5397 8.24414 18.4415 8.25176C18.3432 8.25937 18.2474 8.28626 18.1596 8.33089C18.0717 8.37552 17.9935 8.43702 17.9294 8.51187C17.8654 8.58673 17.8166 8.67347 17.7861 8.76715C17.7555 8.86083 17.7437 8.95961 17.7513 9.05786C17.7589 9.1561 17.7858 9.25188 17.8305 9.33974C17.8751 9.42759 17.9366 9.50579 18.0114 9.56987L19.9714 11.2499H8.99944Z" fill="white"/>
</svg>
