<svg width="24" height="24" viewBox="0 0 24 24" fill="none" xmlns="http://www.w3.org/2000/svg">
<path d="M5.115 20C4.655 20 4.271 19.846 3.963 19.538C3.655 19.23 3.50067 18.8457 3.5 18.385V5.615C3.5 5.155 3.65433 4.771 3.963 4.463C4.27167 4.155 4.65567 4.00067 5.115 4H14.423V5H5.115C4.96167 5 4.82067 5.064 4.692 5.192C4.56333 5.32 4.49933 5.461 4.5 5.615V18.385C4.5 18.5383 4.564 18.6793 4.692 18.808C4.82 18.9367 4.961 19.0007 5.115 19H17.885C18.0383 19 18.1793 18.936 18.308 18.808C18.4367 18.68 18.5007 18.539 18.5 18.385V9.077H19.5V18.385C19.5 18.845 19.346 19.229 19.038 19.537C18.73 19.845 18.3457 19.9993 17.885 20H5.115ZM8 16.5V15.5H15V16.5H8ZM8 13.5V12.5H15V13.5H8ZM8 10.5V9.5H15V10.5H8ZM17.5 8V6H15.5V5H17.5V3H18.5V5H20.5V6H18.5V8H17.5Z" fill="black"/>
</svg>
