<svg width="25" height="24" viewBox="0 0 25 24" fill="none" xmlns="http://www.w3.org/2000/svg">
<g id="iconoir:tiktok">
<g id="Group">
<path id="Vector" d="M21.4258 8V16C21.4258 17.3261 20.899 18.5979 19.9613 19.5355C19.0236 20.4732 17.7519 21 16.4258 21H8.42578C7.0997 21 5.82793 20.4732 4.89025 19.5355C3.95257 18.5979 3.42578 17.3261 3.42578 16V8C3.42578 6.67392 3.95257 5.40215 4.89025 4.46447C5.82793 3.52678 7.0997 3 8.42578 3H16.4258C17.7519 3 19.0236 3.52678 19.9613 4.46447C20.899 5.40215 21.4258 6.67392 21.4258 8Z" stroke="black" stroke-width="1.5" stroke-linecap="round" stroke-linejoin="round"/>
<path id="Vector_2" d="M10.4258 12C9.83244 12 9.25242 12.1759 8.75907 12.5056C8.26572 12.8352 7.88121 13.3038 7.65414 13.8519C7.42708 14.4001 7.36767 15.0033 7.48343 15.5853C7.59918 16.1672 7.8849 16.7018 8.30446 17.1213C8.72402 17.5409 9.25857 17.8266 9.84051 17.9424C10.4225 18.0581 11.0257 17.9987 11.5738 17.7716C12.122 17.5446 12.5905 17.1601 12.9202 16.6667C13.2498 16.1734 13.4258 15.5933 13.4258 15V6C13.7588 7 15.0258 9 17.4258 9" stroke="black" stroke-width="1.5" stroke-linecap="round" stroke-linejoin="round"/>
</g>
</g>
</svg>
