<svg width="70" height="70" viewBox="0 0 100 100" fill="none" xmlns="http://www.w3.org/2000/svg">
<path d="M50.0098 6.25C25.8496 6.25 6.25977 25.8398 6.25977 50C6.25977 67.9102 17.041 83.3008 32.4512 90.0781C32.334 87.0312 32.4316 83.3594 33.2129 80.0391C34.0527 76.4844 38.8379 56.1914 38.8379 56.1914C38.8379 56.1914 37.4316 53.3984 37.4316 49.2773C37.4316 42.793 41.1816 37.9492 45.8691 37.9492C49.8535 37.9492 51.7676 40.9375 51.7676 44.5117C51.7676 48.5156 49.209 54.4922 47.9004 60.0391C46.8066 64.6875 50.2246 68.457 54.8145 68.457C63.0957 68.457 68.6816 57.8125 68.6816 45.1953C68.6816 35.6055 62.2168 28.4375 50.4785 28.4375C37.2168 28.4375 28.9355 38.3398 28.9355 49.3945C28.9355 53.2031 30.0684 55.8984 31.8262 57.9687C32.627 58.9258 32.7441 59.3164 32.4512 60.4102C32.2363 61.2109 31.7676 63.1445 31.5527 63.9258C31.2598 65.0391 30.3613 65.4297 29.3652 65.0195C23.252 62.5195 20.4004 55.8398 20.4004 48.3008C20.4004 35.8789 30.8887 20.9766 51.6699 20.9766C68.3691 20.9766 79.3652 33.0664 79.3652 46.0352C79.3652 63.2031 69.8145 76.0156 55.752 76.0156C51.0254 76.0156 46.5918 73.457 45.0684 70.5664C45.0684 70.5664 42.5293 80.6445 41.9824 82.5977C41.0645 85.9766 39.248 89.3359 37.5879 91.9727C41.615 93.1607 45.7915 93.7658 49.9902 93.7695C74.1504 93.7695 93.7402 74.1797 93.7402 50.0195C93.7402 25.8594 74.1699 6.25 50.0098 6.25Z" fill="#DDDDDD"/>
</svg>
