<svg width="25" height="24" viewBox="0 0 25 24" fill="none" xmlns="http://www.w3.org/2000/svg">
<g id="ri:instagram-line">
<path id="Vector" d="M12.4268 9C11.6311 9 10.8681 9.31607 10.3055 9.87868C9.74285 10.4413 9.42678 11.2044 9.42678 12C9.42678 12.7956 9.74285 13.5587 10.3055 14.1213C10.8681 14.6839 11.6311 15 12.4268 15C13.2224 15 13.9855 14.6839 14.5481 14.1213C15.1107 13.5587 15.4268 12.7956 15.4268 12C15.4268 11.2044 15.1107 10.4413 14.5481 9.87868C13.9855 9.31607 13.2224 9 12.4268 9ZM12.4268 7C13.7529 7 15.0246 7.52678 15.9623 8.46447C16.9 9.40215 17.4268 10.6739 17.4268 12C17.4268 13.3261 16.9 14.5979 15.9623 15.5355C15.0246 16.4732 13.7529 17 12.4268 17C11.1007 17 9.82893 16.4732 8.89125 15.5355C7.95357 14.5979 7.42678 13.3261 7.42678 12C7.42678 10.6739 7.95357 9.40215 8.89125 8.46447C9.82893 7.52678 11.1007 7 12.4268 7ZM18.9268 6.75C18.9268 7.08152 18.7951 7.39946 18.5607 7.63388C18.3262 7.8683 18.0083 8 17.6768 8C17.3453 8 17.0273 7.8683 16.7929 7.63388C16.5585 7.39946 16.4268 7.08152 16.4268 6.75C16.4268 6.41848 16.5585 6.10054 16.7929 5.86612C17.0273 5.6317 17.3453 5.5 17.6768 5.5C18.0083 5.5 18.3262 5.6317 18.5607 5.86612C18.7951 6.10054 18.9268 6.41848 18.9268 6.75ZM12.4268 4C9.95278 4 9.54878 4.007 8.39778 4.058C7.61378 4.095 7.08778 4.2 6.59978 4.39C6.1914 4.53994 5.82219 4.78026 5.51978 5.093C5.20679 5.3954 4.96613 5.76458 4.81578 6.173C4.62578 6.663 4.52078 7.188 4.48478 7.971C4.43278 9.075 4.42578 9.461 4.42578 12C4.42578 14.475 4.43278 14.878 4.48378 16.029C4.52078 16.812 4.62578 17.339 4.81478 17.826C4.98478 18.261 5.18478 18.574 5.51678 18.906C5.85378 19.242 6.16678 19.443 6.59678 19.609C7.09078 19.8 7.61678 19.906 8.39678 19.942C9.50078 19.994 9.88678 20 12.4258 20C14.9008 20 15.3038 19.993 16.4548 19.942C17.2368 19.905 17.7628 19.8 18.2518 19.611C18.6598 19.4603 19.0288 19.2201 19.3318 18.908C19.6688 18.572 19.8698 18.259 20.0358 17.828C20.2258 17.336 20.3318 16.81 20.3678 16.028C20.4198 14.925 20.4258 14.538 20.4258 12C20.4258 9.526 20.4188 9.122 20.3678 7.971C20.3308 7.189 20.2248 6.661 20.0358 6.173C19.885 5.76502 19.6448 5.39598 19.3328 5.093C19.0305 4.77985 18.6613 4.53917 18.2528 4.389C17.7628 4.199 17.2368 4.094 16.4548 4.058C15.3518 4.006 14.9658 4 12.4258 4M12.4258 2C15.1428 2 15.4818 2.01 16.5488 2.06C17.6128 2.11 18.3388 2.277 18.9758 2.525C19.6358 2.779 20.1918 3.123 20.7478 3.678C21.2563 4.1779 21.6497 4.78259 21.9008 5.45C22.1478 6.087 22.3158 6.813 22.3658 7.878C22.4128 8.944 22.4258 9.283 22.4258 12C22.4258 14.717 22.4158 15.056 22.3658 16.122C22.3158 17.187 22.1478 17.912 21.9008 18.55C21.6504 19.2178 21.2569 19.8226 20.7478 20.322C20.2477 20.8303 19.6431 21.2238 18.9758 21.475C18.3388 21.722 17.6128 21.89 16.5488 21.94C15.4818 21.987 15.1428 22 12.4258 22C9.70878 22 9.36978 21.99 8.30278 21.94C7.23878 21.89 6.51378 21.722 5.87578 21.475C5.20811 21.2245 4.60331 20.8309 4.10378 20.322C3.59521 19.8222 3.20174 19.2175 2.95078 18.55C2.70278 17.913 2.53578 17.187 2.48578 16.122C2.43778 15.056 2.42578 14.717 2.42578 12C2.42578 9.283 2.43578 8.944 2.48578 7.878C2.53578 6.813 2.70278 6.088 2.95078 5.45C3.20102 4.78218 3.59458 4.17732 4.10378 3.678C4.60345 3.16923 5.20821 2.77573 5.87578 2.525C6.51278 2.277 7.23778 2.11 8.30278 2.06C9.37078 2.013 9.70978 2 12.4268 2" fill="black"/>
</g>
</svg>
