<svg width="137" height="37" viewBox="0 0 137 37" fill="none" xmlns="http://www.w3.org/2000/svg">
<g id="Social Links">
<g id="Group 3148">
<g id="Twitter">
<path id="Oval 10 Copy" opacity="0.1" fill-rule="evenodd" clip-rule="evenodd" d="M118.5 35.7725C128.165 35.7725 136 27.9374 136 18.2725C136 8.60748 128.165 0.772461 118.5 0.772461C108.835 0.772461 101 8.60748 101 18.2725C101 27.9374 108.835 35.7725 118.5 35.7725Z" stroke="#BA1C05" stroke-width="1.5"/>
<path id="ic Twitter" d="M124.22 15.0371C124.139 14.9454 124.008 14.9223 123.901 14.9789C123.834 15.0141 123.708 15.0602 123.559 15.1058C123.747 14.8486 123.899 14.5606 123.965 14.3018C123.994 14.1902 123.952 14.0726 123.86 14.0061C123.768 13.9401 123.646 13.9401 123.554 14.0061C123.409 14.11 122.71 14.4221 122.268 14.5233C121.27 13.6235 120.107 13.5301 118.899 14.2556C117.917 14.8453 117.703 16.0446 117.745 16.7756C115.497 16.553 114.1 15.3317 113.313 14.321C113.258 14.2501 113.169 14.2127 113.086 14.2182C112.999 14.2248 112.919 14.2748 112.875 14.3523C112.503 14.9981 112.4 15.7121 112.577 16.4172C112.675 16.8019 112.845 17.141 113.042 17.4158C112.947 17.368 112.856 17.3081 112.77 17.2367C112.691 17.1696 112.58 17.157 112.487 17.2015C112.394 17.2471 112.334 17.3438 112.334 17.4499C112.334 18.6607 113.071 19.4686 113.758 19.8907C113.647 19.877 113.531 19.8517 113.414 19.8149C113.314 19.7836 113.205 19.8149 113.135 19.8962C113.066 19.977 113.049 20.0924 113.093 20.1908C113.479 21.0696 114.211 21.6742 115.117 21.8935C114.326 22.3711 113.267 22.6052 112.298 22.4904C112.172 22.4722 112.053 22.5541 112.013 22.6783C111.974 22.8026 112.025 22.9389 112.136 23.0026C113.607 23.8518 114.936 24.1551 116.085 24.1551C117.757 24.1551 119.047 23.5132 119.833 22.9762C121.95 21.5308 123.27 18.9355 123.086 16.6134C123.426 16.3556 123.933 15.8797 124.248 15.368C124.313 15.2647 124.301 15.1284 124.22 15.0371Z" fill="#BA1C05"/>
</g>
<g id="facebook">
<path id="Oval 10" opacity="0.1" fill-rule="evenodd" clip-rule="evenodd" d="M68.5 35.7725C78.165 35.7725 86 27.9374 86 18.2725C86 8.60748 78.165 0.772461 68.5 0.772461C58.835 0.772461 51 8.60748 51 18.2725C51 27.9374 58.835 35.7725 68.5 35.7725Z" stroke="#BA1C05" stroke-width="1.5"/>
<path id="ic Facebook" d="M70.0932 13.7932H71.7016C71.8495 13.7932 71.9696 13.6801 71.9696 13.5406V12.0251C71.9696 11.8856 71.8495 11.7725 71.7016 11.7725H70.0932C68.4677 11.7725 67.1445 13.0188 67.1445 14.551V16.3192H65.2681C65.1201 16.3192 65 16.4324 65 16.5718V18.0874C65 18.2268 65.1201 18.34 65.2681 18.34H67.1445V23.6446C67.1445 23.784 67.2646 23.8972 67.4126 23.8972H69.0209C69.1689 23.8972 69.289 23.784 69.289 23.6446V18.34H71.1655C71.2807 18.34 71.3831 18.2703 71.4201 18.1672L71.9562 16.6516C71.9836 16.5749 71.9696 16.49 71.9192 16.4238C71.8683 16.3581 71.7879 16.3192 71.7016 16.3192H69.289V14.551C69.289 14.1332 69.6498 13.7932 70.0932 13.7932Z" fill="#BA1C05"/>
</g>
<g id="Linkedin">
<path id="Oval 10 Copy 3" opacity="0.1" fill-rule="evenodd" clip-rule="evenodd" d="M18.5 35.7725C28.165 35.7725 36 27.9374 36 18.2725C36 8.60748 28.165 0.772461 18.5 0.772461C8.83502 0.772461 1 8.60748 1 18.2725C1 27.9374 8.83502 35.7725 18.5 35.7725Z" stroke="#BA1C05" stroke-width="1.5"/>
<g id="ic Linkedin">
<path id="Oval" d="M14.4835 14.7396C15.3029 14.7396 15.9671 14.0754 15.9671 13.256C15.9671 12.4367 15.3029 11.7725 14.4835 11.7725C13.6642 11.7725 13 12.4367 13 13.256C13 14.0754 13.6642 14.7396 14.4835 14.7396Z" fill="#BA1C05"/>
<path id="Shape" d="M15.7198 15.7305H13.2473C13.1108 15.7305 13 15.8412 13 15.9777V23.3955C13 23.532 13.1108 23.6427 13.2473 23.6427H15.7198C15.8563 23.6427 15.9671 23.532 15.9671 23.3955V15.9777C15.9671 15.8412 15.8563 15.7305 15.7198 15.7305Z" fill="#BA1C05"/>
<path id="Shape_2" d="M23.088 15.3189C22.0313 14.9569 20.7094 15.2749 19.9167 15.845C19.8895 15.7387 19.7926 15.6596 19.6774 15.6596H17.2048C17.0683 15.6596 16.9575 15.7704 16.9575 15.9068V23.3246C16.9575 23.4611 17.0683 23.5718 17.2048 23.5718H19.6774C19.8138 23.5718 19.9246 23.4611 19.9246 23.3246V17.9937C20.3242 17.6495 20.839 17.5397 21.2603 17.7188C21.6688 17.8913 21.9027 18.3127 21.9027 18.8739V23.3246C21.9027 23.4611 22.0135 23.5718 22.1499 23.5718H24.6225C24.759 23.5718 24.8698 23.4611 24.8698 23.3246V18.376C24.8416 16.344 23.8857 15.5918 23.088 15.3189Z" fill="#BA1C05"/>
</g>
</g>
</g>
</g>
</svg>
