<svg width="32" height="32" viewBox="0 0 52 52" fill="none" xmlns="http://www.w3.org/2000/svg">
<g clip-path="url(#clip0_54_955)">
<path d="M35.863 15.9375L48.2789 22.204C49.259 22.6946 50.0959 23.4298 50.7088 24.3385C51.3216 25.2473 51.6896 26.2987 51.7772 27.3913L51.7977 27.8959V42.2414C51.7976 44.6832 50.8634 47.0325 49.1866 48.8077C47.5098 50.5828 45.2175 51.6492 42.7796 51.7884L42.2382 51.8039H0.0319796L15.9521 35.8634H35.863V15.9375ZM51.7685 0L35.8634 15.9377H15.9521V35.8634L3.50445 29.6143C2.52686 29.1211 1.69275 28.3845 1.08247 27.4754C0.472183 26.5663 0.106293 25.5154 0.0200419 24.4238L1.07539e-05 23.9196V9.57731C-0.00363146 7.1472 0.918026 4.80685 2.57772 3.03178C4.23741 1.25671 6.51064 0.180079 8.93551 0.0206381L9.56275 0H51.7685Z" fill="#FF5733"/>
</g>
<defs>
<clipPath id="clip0_54_955">
<rect width="51.7977" height="52" fill="white"/>
</clipPath>
</defs>
</svg>
