<svg width="70" height="70" viewBox="0 0 100 100" fill="none" xmlns="http://www.w3.org/2000/svg">
<path d="M45.19 70.3912C44.494 71.3752 43.835 71.8602 43.205 71.8602C42.785 71.8602 42.546 71.6142 42.47 71.1262C42.44 71.0252 42.44 70.6422 42.44 69.9062V57.1462H39.302V70.8502C39.302 72.0752 39.406 72.9012 39.579 73.4262C39.892 74.3042 40.59 74.7152 41.602 74.7152C42.756 74.7152 43.942 74.0182 45.189 72.5862V74.4772H48.332V57.1472H45.19V70.3912ZM27.897 54.4922H31.591V74.4772H35.083V54.4922H38.845V51.2182H27.897V54.4922ZM49.281 39.3402C50.304 39.3402 50.794 38.5302 50.794 36.9092V29.5412C50.794 27.9222 50.304 27.1152 49.281 27.1152C48.257 27.1152 47.766 27.9222 47.766 29.5412V36.9092C47.767 38.5292 48.257 39.3402 49.281 39.3402ZM57.434 56.9352C56.28 56.9352 55.204 57.5672 54.191 58.8152V51.2182H51.05V74.4772H54.191V72.7952C55.239 74.0942 56.318 74.7152 57.434 74.7152C58.685 74.7152 59.525 74.0572 59.945 72.7682C60.154 72.0332 60.261 70.8792 60.261 69.2762V62.3752C60.261 60.7352 60.154 59.5892 59.945 58.8922C59.524 57.5932 58.685 56.9352 57.434 56.9352ZM57.121 69.5222C57.121 71.0872 56.66 71.8592 55.755 71.8592C55.239 71.8592 54.715 71.6132 54.19 71.0882V60.5242C54.715 60.0072 55.238 59.7612 55.755 59.7612C56.661 59.7612 57.121 60.5632 57.121 62.1262V69.5222ZM67.435 56.9352C65.833 56.9352 64.581 57.5262 63.675 58.7132C63.007 59.5882 62.704 60.9422 62.704 62.7932V68.8652C62.704 70.7052 63.046 72.0742 63.713 72.9392C64.62 74.1222 65.87 74.7142 67.514 74.7142C69.154 74.7142 70.441 74.0932 71.311 72.8372C71.6946 72.2731 71.9452 71.6293 72.044 70.9542C72.072 70.6392 72.111 69.9412 72.111 68.9312V68.4712H68.906C68.906 69.7312 68.867 70.4282 68.838 70.5992C68.659 71.4382 68.207 71.8582 67.435 71.8582C66.357 71.8582 65.833 71.0582 65.833 69.4542V66.3822H72.112V62.7922C72.112 60.9402 71.797 59.5872 71.14 58.7122C70.261 57.5252 69.011 56.9352 67.435 56.9352ZM68.972 63.7692H65.833V62.1662C65.833 60.5642 66.357 59.7622 67.407 59.7622C68.446 59.7622 68.972 60.5642 68.972 62.1662V63.7692Z" fill="#DDDDDD"/>
<path d="M79 14H21C17.15 14 14 17.15 14 21V79C14 82.85 17.15 86 21 86H79C82.85 86 86 82.85 86 79V21C86 17.15 82.85 14 79 14ZM56.58 24.47H59.743V37.362C59.743 38.108 59.743 38.495 59.782 38.597C59.852 39.089 60.1 39.34 60.526 39.34C61.16 39.34 61.827 38.848 62.53 37.854V24.47H65.704V41.98H62.53V40.07C61.267 41.519 60.062 42.223 58.905 42.223C57.883 42.223 57.178 41.808 56.861 40.92C56.686 40.391 56.58 39.552 56.58 38.316V24.47ZM44.593 30.178C44.593 28.307 44.912 26.938 45.587 26.053C46.465 24.857 47.701 24.258 49.281 24.258C50.871 24.258 52.105 24.857 52.984 26.053C53.648 26.938 53.969 28.307 53.969 30.178V36.313C53.969 38.173 53.649 39.553 52.984 40.432C52.105 41.625 50.872 42.224 49.281 42.224C47.7 42.224 46.464 41.625 45.587 40.432C44.912 39.553 44.593 38.173 44.593 36.313V30.178ZM36.107 18.482L38.606 27.709L41.005 18.482H44.563L40.331 32.464V41.98H36.811V32.464C36.493 30.776 35.789 28.306 34.661 25.029C33.919 22.849 33.146 20.659 32.405 18.482H36.107ZM75.073 75.518C74.439 78.281 72.177 80.319 69.457 80.622C63.013 81.342 56.492 81.346 50 81.342C43.507 81.346 36.986 81.342 30.543 80.622C27.822 80.318 25.564 78.28 24.929 75.518C24.024 71.582 24.024 67.286 24.024 63.236C24.024 59.182 24.034 54.889 24.94 50.952C25.574 48.19 27.833 46.153 30.554 45.849C36.997 45.127 43.518 45.125 50.011 45.127C56.503 45.125 63.024 45.127 69.468 45.849C72.187 46.153 74.448 48.19 75.083 50.952C75.988 54.89 75.983 59.182 75.983 63.236C75.984 67.286 75.979 71.582 75.073 75.518Z" fill="#DDDDDD"/>
</svg>
