<svg width="41" height="41" viewBox="0 0 41 41" fill="none" xmlns="http://www.w3.org/2000/svg">
<g id="logos:stackbit-icon" clip-path="url(#clip0_18_4251)">
<path id="Vector" d="M27.7282 12.3224L37.3278 17.1675C38.0856 17.5468 38.7327 18.1153 39.2065 18.8178C39.6803 19.5204 39.9649 20.3334 40.0326 21.1781L40.0484 21.5683V32.6598C40.0483 34.5478 39.326 36.3642 38.0296 37.7366C36.7332 39.1091 34.9608 39.9336 33.0759 40.0412L32.6573 40.0533H0.0247257L12.3337 27.7285H27.7282V12.3224ZM40.0259 0L27.7285 12.3226H12.3337V27.7285L2.70953 22.8969C1.95369 22.5156 1.30878 21.9461 0.836931 21.2432C0.365078 20.5403 0.0821825 19.7277 0.0154958 18.8838L8.31462e-06 18.4939V7.40489C-0.00280774 5.526 0.709791 3.71651 1.99302 2.34408C3.27624 0.971651 5.03383 0.139232 6.90867 0.0159568L7.39364 0H40.0259Z" fill="#004141"/>
</g>
<defs>
<clipPath id="clip0_18_4251">
<rect width="40.0484" height="40.2049" fill="white"/>
</clipPath>
</defs>
</svg>
